<svg version="1.1" xmlns="http://www.w3.org/2000/svg" xmlns:xlink="http://www.w3.org/1999/xlink" width="641.15694" height="366.81387" viewBox="0,0,641.15694,366.81387"><g transform="translate(-0.10113,4.9168)"><g data-paper-data="{&quot;isPaintingLayer&quot;:true}" fill-rule="nonzero" stroke-linecap="butt" stroke-linejoin="miter" stroke-miterlimit="10" stroke-dasharray="" stroke-dashoffset="0" style="mix-blend-mode: normal"><path d="M7.60113,354.39707v-351.81387h626.15694v351.81387z" fill="none" stroke="#9966ff" stroke-width="15"/><path d="M227.7535,349.18044v-343.83072h35.20584v343.83072z" fill="#9966ff" stroke="none" stroke-width="0"/><path d="M157.89862,349.65053v-270.22888h16.77266v270.22888z" fill="#9966ff" stroke="none" stroke-width="0"/><path d="M10.67748,320.47963v-56.69782h44.23676v56.69782z" fill="#6682ff" stroke="none" stroke-width="0"/><path d="M10.67748,255.68212v-48.90966h44.54829v48.90966z" fill="#6682ff" stroke="none" stroke-width="0"/><path d="M99.46253,347.58243v-28.66044h42.99065v28.66044z" fill="#6682ff" stroke="none" stroke-width="0"/><path d="M9.11985,194.3114v-68.53583h29.59502v68.53583z" fill="#6682ff" stroke="none" stroke-width="0"/><path d="M35.55245,185.56112v-50.08255h11.55751v50.08255z" fill="#6682ff" stroke="none" stroke-width="0"/><path d="M135.55966,243.5937l0.33356,-107.18799h22.87406v106.85444z" fill="#9966ff" stroke="none" stroke-width="0"/><path d="M380.90467,261.34066c0,-18.71881 15.17459,-33.8934 33.8934,-33.8934c18.71881,0 33.8934,15.17459 33.8934,33.8934c0,18.71881 -15.17459,33.8934 -33.8934,33.8934c-18.71881,0 -33.8934,-15.17459 -33.8934,-33.8934z" fill="#9966ff" stroke="none" stroke-width="0"/><path d="M379.53155,107.5921c0,-18.71881 15.17459,-33.8934 33.8934,-33.8934c18.7188,0 33.8934,15.17459 33.8934,33.8934c0,18.7188 -15.17459,33.8934 -33.89339,33.8934c-18.7188,0 -33.89339,-15.17459 -33.89339,-33.8934z" fill="#9966ff" stroke="none" stroke-width="0"/><path d="M518.58137,258.22942c0,-18.71881 15.17459,-33.8934 33.89339,-33.8934c18.71881,0 33.8934,15.17459 33.8934,33.8934c0,18.7188 -15.17459,33.8934 -33.8934,33.8934c-18.7188,0 -33.89339,-15.17459 -33.89339,-33.89339z" fill="#9966ff" stroke="none" stroke-width="0"/><path d="M518.367,112.59211c0,-18.71881 15.17459,-33.89339 33.8934,-33.89339c18.7188,0 33.8934,15.17459 33.8934,33.8934c0,18.71881 -15.17459,33.8934 -33.8934,33.8934c-18.7188,0 -33.8934,-15.17459 -33.8934,-33.89339z" fill="#9966ff" stroke="none" stroke-width="0"/><path d="M135.57981,142.2875v-33.71097h25.00691v33.71097z" fill="#9966ff" stroke="none" stroke-width="0"/></g></g></svg>